<svg width="293" height="45" viewBox="0 0 293 45" fill="none" xmlns="http://www.w3.org/2000/svg">
<path fill-rule="evenodd" clip-rule="evenodd" d="M16.4358 34.6448H31.9856L35.3008 28.9345H19.7522H13.1217H9.93787V34.4178L10.1672 34.6448L14.1415 38.5982L16.4358 34.6448Z" fill="url(#paint0_linear_46_2671)"/>
<path fill-rule="evenodd" clip-rule="evenodd" d="M25.5277 5.71029H32.1581L35.4734 0H25.7136H12.8568L6.42784 11.073L0 22.1448L1.65761 24.9999H8.28806H12.859H14.3285H19.2702H33.7823H38.5682H43.138L40.0254 30.3626L35.2552 38.5793H33.5975H25.8984H19.2679L15.9527 44.2896H25.7136H38.5693L44.9982 33.2177L51.4261 22.1448L49.7685 19.2897H12.859H8.28806L11.4007 13.9281L16.172 5.71029H18.03H25.5277Z" fill="white"/>
<path fill-rule="evenodd" clip-rule="evenodd" d="M34.9902 9.64482H19.4405L16.1252 15.3551H31.675H38.3054H41.4882V9.87177L41.2599 9.64482L37.2846 5.69257L34.9902 9.64482Z" fill="url(#paint1_linear_46_2671)"/>
<path d="M63.6684 32.7019C62.2739 32.169 61.243 31.5007 60.5758 30.6969L61.394 29.5212C62.0405 30.2851 62.9956 30.9124 64.2595 31.4033C65.5098 31.8933 66.842 32.1438 68.1859 32.1417C70.2276 32.1417 71.8603 31.7295 73.0842 30.9051C74.308 30.0807 74.9191 28.9367 74.9177 27.4731C74.9177 26.7093 74.6902 26.086 74.2352 25.6033C73.7578 25.1056 73.179 24.715 72.5376 24.4575C71.6412 24.1033 70.725 23.8013 69.7934 23.553C68.7038 23.2367 67.6314 22.8642 66.5806 22.4371C65.7848 22.1049 65.0818 21.5855 64.5323 20.9237C63.9771 20.2594 63.6992 19.3948 63.6984 18.3298C63.6984 17.0441 64.0521 15.9286 64.7594 14.9831C65.4666 14.0377 66.437 13.3192 67.6705 12.8277C68.9032 12.3346 70.3181 12.0885 71.9153 12.0892C73.1097 12.0838 74.2989 12.2463 75.4476 12.5719C76.4768 12.8492 77.4475 13.3086 78.313 13.9281L77.585 15.1946C76.7994 14.6132 75.9168 14.1743 74.9778 13.8982C73.965 13.5935 72.9121 13.4408 71.854 13.4454C69.8732 13.4454 68.2776 13.8676 67.0671 14.7119C65.8566 15.5562 65.2503 16.712 65.2481 18.1793C65.2481 18.9631 65.4807 19.6063 65.9461 20.1089C66.4235 20.6205 67.008 21.0218 67.6582 21.2846C68.5754 21.6474 69.5119 21.9597 70.4636 22.2201C71.5426 22.5329 72.6049 22.9001 73.6463 23.3205C74.4222 23.6417 75.1094 24.1432 75.6502 24.783C76.1957 25.4265 76.4684 26.2605 76.4684 27.2849C76.4684 29.2555 75.6891 30.7833 74.1306 31.8682C72.5721 32.9532 70.5508 33.496 68.0668 33.4967C66.5639 33.5044 65.0725 33.2348 63.6684 32.7019Z" fill="#FCFCFC"/>
<path d="M88.3176 13.6314H80.6775L80.9803 12.2443H97.808L97.5353 13.6314H89.894L85.9231 33.3495H84.3768L88.3176 13.6314Z" fill="#FCFCFC"/>
<path d="M110.754 27.4101H98.4104L94.5029 33.3495H92.7751L106.782 12.2443H108.328L113.847 33.3495H112.27L110.754 27.4101ZM110.42 26.1137L107.303 13.8728L99.2631 26.1137H110.42Z" fill="#FCFCFC"/>
<path d="M121.941 12.2443H123.487L119.244 33.3495H117.697L121.941 12.2443Z" fill="#FCFCFC"/>
<path d="M148.172 12.2443L143.927 33.3495H142.624L131.919 14.7772L128.189 33.3495H126.643L130.888 12.2443H132.162L142.894 30.8176L146.624 12.2443H148.172Z" fill="#FCFCFC"/>
<path d="M156.839 13.6314L155.169 21.9533H166.447L166.174 23.3095H154.898L153.139 31.9635H166.238L165.934 33.3495H151.32L155.565 12.2443H169.754L169.452 13.6314H156.839Z" fill="#FCFCFC"/>
<path d="M184.261 32.6409C182.613 31.8475 181.34 30.7372 180.442 29.3098C179.543 27.8824 179.093 26.2443 179.092 24.3955C179.092 21.9429 179.663 19.762 180.804 17.8527C181.941 15.9485 183.59 14.3977 185.565 13.3745C187.597 12.2992 189.906 11.7615 192.493 11.7615C194.534 11.7615 196.343 12.1283 197.92 12.862C199.498 13.5956 200.671 14.6359 201.437 15.9828L196.283 19.9926C195.332 18.3453 193.917 17.5213 192.038 17.5205C190.99 17.5031 189.958 17.7855 189.067 18.3342C188.188 18.8883 187.484 19.6776 187.035 20.6115C186.551 21.5872 186.309 22.6976 186.308 23.9427C186.308 25.1878 186.707 26.1878 187.506 26.9428C188.305 27.6971 189.361 28.0739 190.674 28.0732C192.473 28.0732 194.049 27.2591 195.403 25.631L199.618 29.6419C198.385 31.149 196.985 32.2243 195.419 32.8679C193.853 33.5115 192.039 33.8329 189.976 33.8322C187.814 33.8322 185.909 33.4351 184.261 32.6409Z" fill="url(#paint2_linear_46_2671)"/>
<path d="M204.711 12.2443H211.867L208.743 27.833H218.325L217.203 33.3495H200.466L204.711 12.2443Z" fill="url(#paint3_linear_46_2671)"/>
<path d="M225.131 32.6409C223.504 31.8475 222.251 30.7372 221.372 29.3098C220.493 27.8824 220.054 26.2443 220.053 24.3955C220.053 21.9429 220.624 19.7568 221.766 17.8372C222.896 15.9279 224.546 14.3757 226.526 13.3602C228.557 12.2937 230.858 11.7608 233.428 11.7615C235.59 11.7615 237.485 12.1586 239.113 12.9527C240.74 13.7469 241.993 14.8573 242.872 16.2839C243.751 17.7121 244.191 19.3505 244.191 21.1993C244.191 23.6511 243.62 25.8369 242.478 27.7565C241.348 29.666 239.698 31.2185 237.718 32.2347C235.687 33.2997 233.387 33.8322 230.816 33.8322C228.653 33.8322 226.758 33.4351 225.131 32.6409ZM234.378 27.1997C235.225 26.6065 235.892 25.7925 236.304 24.8471C236.755 23.8314 236.983 22.7315 236.972 21.6211C236.972 20.3746 236.603 19.3782 235.865 18.632C235.128 17.8859 234.112 17.5139 232.818 17.5161C231.686 17.5161 230.7 17.8076 229.862 18.3907C229.015 18.9838 228.349 19.7973 227.937 20.7421C227.485 21.7577 227.257 22.8577 227.269 23.9681C227.269 25.2147 227.638 26.2111 228.375 26.9572C229.113 27.7034 230.129 28.075 231.422 28.0721C232.554 28.0728 233.539 27.782 234.378 27.1997Z" fill="url(#paint4_linear_46_2671)"/>
<path d="M250.356 32.8801C248.971 32.2469 247.91 31.3476 247.172 30.1822C246.435 29.0168 246.066 27.6514 246.066 26.086C246.077 25.3362 246.159 24.589 246.309 23.8541L248.646 12.2465H255.802L253.498 23.7335C253.383 24.2383 253.322 24.7537 253.315 25.2712C253.315 26.2166 253.558 26.9204 254.043 27.3824C254.529 27.8444 255.236 28.0754 256.166 28.0754C257.217 28.0754 258.036 27.7433 258.622 27.0791C259.208 26.4148 259.663 25.2989 259.986 23.7313L262.29 12.2443H269.325L266.929 24.1542C266.282 27.3507 264.988 29.7626 263.048 31.39C261.108 33.0174 258.521 33.8315 255.287 33.8322C253.385 33.8322 251.741 33.5148 250.356 32.8801Z" fill="url(#paint5_linear_46_2671)"/>
<path d="M272.595 12.2443H282.176C284.402 12.2443 286.328 12.6059 287.952 13.3292C289.575 14.0525 290.824 15.088 291.696 16.4356C292.565 17.7818 292.999 19.3687 293 21.1961C293 23.6316 292.434 25.7672 291.302 27.6027C290.173 29.4399 288.537 30.9156 286.588 31.8539C284.576 32.8495 282.287 33.3469 279.72 33.3462H268.351L272.595 12.2443ZM279.963 27.802C281.802 27.802 283.232 27.2241 284.253 26.0683C285.275 24.9125 285.785 23.4301 285.784 21.6212C285.784 20.3953 285.405 19.4506 284.647 18.7871C283.89 18.1236 282.793 17.7914 281.358 17.7907H278.629L276.625 27.8009L279.963 27.802Z" fill="url(#paint6_linear_46_2671)"/>
<defs>
<linearGradient id="paint0_linear_46_2671" x1="22.6193" y1="28.9345" x2="22.6193" y2="38.5982" gradientUnits="userSpaceOnUse">
<stop stop-color="#3358FF"/>
<stop offset="1" stop-color="#9B5CDC"/>
</linearGradient>
<linearGradient id="paint1_linear_46_2671" x1="28.8067" y1="5.69257" x2="28.8067" y2="15.3551" gradientUnits="userSpaceOnUse">
<stop stop-color="#3358FF"/>
<stop offset="1" stop-color="#9B5CDC"/>
</linearGradient>
<linearGradient id="paint2_linear_46_2671" x1="190.265" y1="11.7615" x2="190.265" y2="33.8322" gradientUnits="userSpaceOnUse">
<stop stop-color="#3358FF"/>
<stop offset="1" stop-color="#9B5CDC"/>
</linearGradient>
<linearGradient id="paint3_linear_46_2671" x1="209.396" y1="12.2443" x2="209.396" y2="33.3495" gradientUnits="userSpaceOnUse">
<stop stop-color="#3358FF"/>
<stop offset="1" stop-color="#9B5CDC"/>
</linearGradient>
<linearGradient id="paint4_linear_46_2671" x1="232.122" y1="11.7615" x2="232.122" y2="33.8322" gradientUnits="userSpaceOnUse">
<stop stop-color="#3358FF"/>
<stop offset="1" stop-color="#9B5CDC"/>
</linearGradient>
<linearGradient id="paint5_linear_46_2671" x1="257.695" y1="12.2443" x2="257.695" y2="33.8322" gradientUnits="userSpaceOnUse">
<stop stop-color="#3358FF"/>
<stop offset="1" stop-color="#9B5CDC"/>
</linearGradient>
<linearGradient id="paint6_linear_46_2671" x1="280.675" y1="12.2443" x2="280.675" y2="33.3462" gradientUnits="userSpaceOnUse">
<stop stop-color="#3358FF"/>
<stop offset="1" stop-color="#9B5CDC"/>
</linearGradient>
</defs>
</svg>
