<svg width="200" height="31" viewBox="0 0 200 31" fill="none" xmlns="http://www.w3.org/2000/svg">
<path fill-rule="evenodd" clip-rule="evenodd" d="M11.2192 23.6483H21.8333L24.0963 19.7505H13.4829H8.95698H6.78369V23.4934L6.94023 23.6483L9.65304 26.3468L11.2192 23.6483Z" fill="url(#paint0_linear_76_3496)"/>
<path fill-rule="evenodd" clip-rule="evenodd" d="M17.425 3.89781H21.9509L24.2139 0H17.5519H8.77597L4.38761 7.55833L0 15.1159L1.13148 17.0648H5.65738H8.77749H9.78055H13.1537H23.0596H26.3264H29.4457L27.3211 20.7253L24.065 26.334H22.9335H17.6781H13.1522L10.8892 30.2318H17.5519H26.3271L30.7155 22.6742L35.1031 15.1159L33.9716 13.167H8.77749H5.65738L7.78203 9.50723L11.0389 3.89781H12.3072H17.425Z" fill="#24225F"/>
<path fill-rule="evenodd" clip-rule="evenodd" d="M23.8839 6.58353H13.2698L11.0068 10.4813H21.621H26.1469H28.3194V6.73844L28.1636 6.58353L25.4501 3.88574L23.8839 6.58353Z" fill="url(#paint1_linear_76_3496)"/>
<path d="M43.4596 22.3221C42.5077 21.9583 41.8041 21.5022 41.3486 20.9535L41.9072 20.151C42.3484 20.6724 43.0004 21.1006 43.8631 21.4357C44.7166 21.7702 45.6259 21.9412 46.5432 21.9397C47.9369 21.9397 49.0514 21.6583 49.8868 21.0956C50.7221 20.5329 51.1393 19.752 51.1383 18.753C51.1383 18.2316 50.983 17.8061 50.6725 17.4766C50.3466 17.1369 49.9515 16.8703 49.5137 16.6945C48.9018 16.4528 48.2764 16.2466 47.6405 16.0771C46.8967 15.8612 46.1647 15.607 45.4475 15.3154C44.9042 15.0886 44.4244 14.7342 44.0493 14.2824C43.6703 13.829 43.4806 13.2388 43.4801 12.5118C43.4801 11.6342 43.7215 10.8727 44.2043 10.2274C44.6871 9.58204 45.3495 9.09161 46.1914 8.75608C47.0329 8.41955 47.9987 8.25154 49.0889 8.25204C49.9042 8.24834 50.7159 8.35927 51.5 8.58152C52.2026 8.77081 52.8651 9.08439 53.456 9.50723L52.959 10.3717C52.4228 9.97486 51.8203 9.67529 51.1793 9.48683C50.488 9.27881 49.7693 9.17464 49.0471 9.17775C47.695 9.17775 46.6058 9.46592 45.7796 10.0423C44.9533 10.6186 44.5394 11.4075 44.5379 12.409C44.5379 12.9441 44.6967 13.3831 45.0143 13.7262C45.3403 14.0754 45.7392 14.3494 46.1831 14.5287C46.8091 14.7764 47.4484 14.9896 48.098 15.1673C48.8345 15.3808 49.5596 15.6315 50.2705 15.9184C50.8001 16.1377 51.2691 16.48 51.6383 16.9167C52.0106 17.356 52.1968 17.9253 52.1968 18.6245C52.1968 19.9696 51.6649 21.0125 50.6011 21.7531C49.5372 22.4936 48.1575 22.8642 46.4619 22.8647C45.436 22.8699 44.4181 22.6859 43.4596 22.3221Z" fill="#24225F"/>
<path d="M60.2849 9.30478H55.0698L55.2765 8.35791H66.763L66.5768 9.30478H61.361L58.6504 22.7642H57.5949L60.2849 9.30478Z" fill="#24225F"/>
<path d="M75.5999 18.71H67.1742L64.507 22.7642H63.3276L72.8886 8.35791H73.9441L77.7108 22.7642H76.6348L75.5999 18.71ZM75.3719 17.8251L73.2442 9.46952L67.7563 17.8251H75.3719Z" fill="#24225F"/>
<path d="M83.2361 8.35791H84.2915L81.3948 22.7642H80.3394L83.2361 8.35791Z" fill="#24225F"/>
<path d="M101.141 8.35791L98.2439 22.7642H97.354L90.0469 10.0869L87.5013 22.7642H86.4458L89.3433 8.35791H90.2126L97.5387 21.036L100.084 8.35791H101.141Z" fill="#24225F"/>
<path d="M107.057 9.30478L105.917 14.9852H113.616L113.43 15.9109H105.733L104.532 21.8181H113.473L113.266 22.7642H103.291L106.188 8.35791H115.874L115.667 9.30478H107.057Z" fill="#24225F"/>
<path d="M125.775 22.2806C124.651 21.739 123.782 20.9811 123.168 20.0068C122.555 19.0324 122.248 17.9143 122.247 16.6523C122.247 14.9782 122.637 13.4895 123.416 12.1862C124.192 10.8865 125.317 9.82785 126.665 9.12947C128.052 8.39545 129.629 8.02844 131.395 8.02844C132.787 8.02844 134.022 8.27883 135.099 8.77959C136.176 9.28036 136.976 9.99044 137.5 10.9099L133.981 13.6469C133.332 12.5225 132.367 11.96 131.084 11.9595C130.368 11.9476 129.664 12.1404 129.056 12.5149C128.456 12.8931 127.975 13.4319 127.669 14.0694C127.339 14.7354 127.173 15.4933 127.173 16.3432C127.172 17.1931 127.445 17.8757 127.99 18.3911C128.535 18.906 129.256 19.1632 130.153 19.1627C131.38 19.1627 132.456 18.607 133.381 17.4956L136.258 20.2335C135.416 21.2622 134.461 21.9962 133.392 22.4355C132.323 22.8748 131.084 23.0942 129.677 23.0937C128.2 23.0937 126.9 22.8227 125.775 22.2806Z" fill="url(#paint2_linear_76_3496)"/>
<path d="M139.734 8.35791H144.619L142.487 18.9987H149.027L148.261 22.7642H136.837L139.734 8.35791Z" fill="url(#paint3_linear_76_3496)"/>
<path d="M153.673 22.2806C152.562 21.739 151.707 20.9811 151.107 20.0068C150.507 19.0324 150.207 17.9143 150.207 16.6523C150.207 14.9782 150.596 13.486 151.376 12.1756C152.147 10.8724 153.274 9.81287 154.625 9.11965C156.011 8.39167 157.582 8.02794 159.337 8.02844C160.812 8.02844 162.106 8.29948 163.217 8.84156C164.328 9.38363 165.183 10.1416 165.783 11.1154C166.383 12.0902 166.683 13.2086 166.683 14.4706C166.683 16.1442 166.293 17.6362 165.514 18.9465C164.742 20.2499 163.616 21.3096 162.264 22.0033C160.878 22.7302 159.308 23.0937 157.553 23.0937C156.077 23.0937 154.784 22.8227 153.673 22.2806ZM159.985 18.5664C160.563 18.1615 161.018 17.6059 161.299 16.9606C161.607 16.2673 161.763 15.5165 161.755 14.7585C161.755 13.9076 161.504 13.2275 161 12.7182C160.496 12.2089 159.803 11.955 158.92 11.9565C158.147 11.9565 157.474 12.1555 156.902 12.5535C156.324 12.9583 155.869 13.5136 155.588 14.1585C155.28 14.8518 155.124 15.6026 155.132 16.3606C155.132 17.2115 155.384 17.8916 155.887 18.4009C156.391 18.9103 157.084 19.1639 157.967 19.1619C158.74 19.1624 159.412 18.9639 159.985 18.5664Z" fill="url(#paint4_linear_76_3496)"/>
<path d="M170.891 22.4438C169.946 22.0116 169.222 21.3977 168.718 20.6022C168.215 19.8067 167.963 18.8747 167.963 17.8062C167.971 17.2944 168.026 16.7844 168.129 16.2827L169.724 8.35942H174.609L173.036 16.2004C172.958 16.545 172.916 16.8968 172.911 17.25C172.911 17.8954 173.077 18.3757 173.408 18.6911C173.74 19.0065 174.223 19.1642 174.857 19.1642C175.575 19.1642 176.133 18.9375 176.534 18.484C176.934 18.0306 177.244 17.2689 177.465 16.1989L179.038 8.35791H183.839L182.204 16.4875C181.762 18.6694 180.879 20.3158 179.555 21.4267C178.231 22.5375 176.465 23.0932 174.257 23.0937C172.959 23.0937 171.837 22.8771 170.891 22.4438Z" fill="url(#paint5_linear_76_3496)"/>
<path d="M186.072 8.35791H192.611C194.131 8.35791 195.445 8.60477 196.554 9.09848C197.662 9.59219 198.514 10.299 199.11 11.2189C199.703 12.1378 199.999 13.221 200 14.4684C200 16.1309 199.614 17.5886 198.841 18.8415C198.07 20.0956 196.953 21.1028 195.623 21.7433C194.249 22.4229 192.687 22.7625 190.935 22.762H183.174L186.072 8.35791ZM191.101 18.9775C192.356 18.9775 193.332 18.583 194.029 17.7941C194.726 17.0052 195.075 15.9933 195.074 14.7585C195.074 13.9217 194.816 13.2769 194.298 12.824C193.781 12.3711 193.033 12.1444 192.053 12.1439H190.19L188.823 18.9767L191.101 18.9775Z" fill="url(#paint6_linear_76_3496)"/>
<defs>
<linearGradient id="paint0_linear_76_3496" x1="15.44" y1="19.7505" x2="15.44" y2="26.3468" gradientUnits="userSpaceOnUse">
<stop stop-color="#3358FF"/>
<stop offset="1" stop-color="#9B5CDC"/>
</linearGradient>
<linearGradient id="paint1_linear_76_3496" x1="19.6631" y1="3.88574" x2="19.6631" y2="10.4813" gradientUnits="userSpaceOnUse">
<stop stop-color="#3358FF"/>
<stop offset="1" stop-color="#9B5CDC"/>
</linearGradient>
<linearGradient id="paint2_linear_76_3496" x1="129.873" y1="8.02844" x2="129.873" y2="23.0937" gradientUnits="userSpaceOnUse">
<stop stop-color="#3358FF"/>
<stop offset="1" stop-color="#9B5CDC"/>
</linearGradient>
<linearGradient id="paint3_linear_76_3496" x1="142.932" y1="8.35791" x2="142.932" y2="22.7642" gradientUnits="userSpaceOnUse">
<stop stop-color="#3358FF"/>
<stop offset="1" stop-color="#9B5CDC"/>
</linearGradient>
<linearGradient id="paint4_linear_76_3496" x1="158.445" y1="8.02844" x2="158.445" y2="23.0937" gradientUnits="userSpaceOnUse">
<stop stop-color="#3358FF"/>
<stop offset="1" stop-color="#9B5CDC"/>
</linearGradient>
<linearGradient id="paint5_linear_76_3496" x1="175.901" y1="8.35791" x2="175.901" y2="23.0937" gradientUnits="userSpaceOnUse">
<stop stop-color="#3358FF"/>
<stop offset="1" stop-color="#9B5CDC"/>
</linearGradient>
<linearGradient id="paint6_linear_76_3496" x1="191.587" y1="8.35791" x2="191.587" y2="22.762" gradientUnits="userSpaceOnUse">
<stop stop-color="#3358FF"/>
<stop offset="1" stop-color="#9B5CDC"/>
</linearGradient>
</defs>
</svg>
