<svg width="40" height="40" viewBox="0 0 40 40" fill="none" xmlns="http://www.w3.org/2000/svg">
<g clip-path="url(#clip0_76_3056)">
<path d="M36.8339 6.18441L31.6657 4.26973C31.2611 4.11989 30.8119 4.32649 30.6617 4.73085C30.5119 5.13551 30.7185 5.58504 31.1231 5.73488L35.7813 7.46065V16.8259C35.7813 26.7606 29.4495 35.4005 20.0001 38.4004C10.5506 35.4005 4.21875 26.7606 4.21875 16.8259V7.46065L20.0001 1.61438L24.5283 3.29194C24.9329 3.44209 25.3825 3.23548 25.5323 2.83082C25.6821 2.42615 25.4758 1.97663 25.0712 1.82679L20.2714 0.0485231C20.0965 -0.0161744 19.9036 -0.0161744 19.7287 0.0485231L3.1662 6.18441C2.8595 6.29793 2.65625 6.59029 2.65625 6.91713V16.8259C2.65625 22.0444 4.29657 27.021 7.39992 31.2165C10.5033 35.4124 14.7812 38.4379 19.7712 39.9656C19.8459 39.9885 19.9228 40.0001 20.0001 40.0001C20.0773 40.0001 20.1542 39.9885 20.2289 39.9656C25.2189 38.4379 29.4968 35.4124 32.6002 31.2165C35.7035 27.021 37.3439 22.0444 37.3439 16.8259V6.91713C37.3439 6.59029 37.1403 6.29793 36.8339 6.18441Z" fill="white"/>
<path d="M19.7168 3.97616L6.9043 8.95939C6.604 9.07597 6.40625 9.36527 6.40625 9.68754V16.8259C6.40625 21.0566 7.67029 25.1066 10.0617 28.5377C12.4448 31.9572 15.7877 34.5359 19.7287 35.995C19.8163 36.0273 19.9082 36.0435 20 36.0435C20.0919 36.0435 20.1838 36.0273 20.2713 35.995C24.2124 34.5359 27.5553 31.9572 29.9384 28.5377C32.3298 25.1066 33.5938 21.0566 33.5938 16.8259V9.68754C33.5938 9.36527 33.3961 9.07627 33.0958 8.95939L20.2832 3.97646C20.1011 3.90536 19.899 3.90536 19.7168 3.97616ZM32.0313 16.8259C32.0313 24.7169 27.3188 31.594 20 34.427C12.681 31.594 7.96875 24.7169 7.96875 16.8259V10.2219L20 5.54263L32.0313 10.2219V16.8259Z" fill="white"/>
<path d="M15.4688 13.2706V14.8655H15.3809C14.0509 14.8655 12.9688 15.9477 12.9688 17.2776V24.9153C12.9688 26.2455 14.0509 27.3274 15.3809 27.3274H24.6192C25.9491 27.3274 27.0313 26.2455 27.0313 24.9153V17.2776C27.0313 15.9477 25.9491 14.8655 24.6192 14.8655H24.5313V13.2706C24.5313 10.7722 22.4985 8.73938 20 8.73938C17.5015 8.73938 15.4688 10.7719 15.4688 13.2706ZM25.4688 17.2776V24.9153C25.4688 25.3837 25.0876 25.7649 24.6192 25.7649H15.3809C14.9124 25.7649 14.5313 25.3837 14.5313 24.9153V17.2776C14.5313 16.8092 14.9124 16.428 15.3809 16.428H24.6192C25.0876 16.428 25.4688 16.8092 25.4688 17.2776ZM22.9688 13.2706V14.8655H17.0313V13.2706C17.0313 11.6337 18.3631 10.3019 20 10.3019C21.637 10.3019 22.9688 11.6337 22.9688 13.2706Z" fill="white"/>
<path d="M20 17.9669C18.7076 17.9669 17.6562 19.0186 17.6562 20.3107C17.6562 21.3294 18.3093 22.1976 19.2188 22.5202V23.132C19.2188 23.5636 19.5685 23.9133 20 23.9133C20.4312 23.9133 20.7813 23.5636 20.7813 23.132V22.5202C21.6904 22.1976 22.3438 21.3294 22.3438 20.3107C22.3438 19.0186 21.2924 17.9669 20 17.9669ZM20 21.0919C19.5691 21.0919 19.2188 20.7416 19.2188 20.3107C19.2188 19.8801 19.5691 19.5294 20 19.5294C20.4306 19.5294 20.7813 19.8801 20.7813 20.3107C20.7813 20.7416 20.4306 21.0919 20 21.0919Z" fill="white"/>
<path d="M28.0967 4.56238C28.3024 4.56238 28.5038 4.47876 28.6491 4.3335C28.7943 4.18732 28.8779 3.98682 28.8779 3.78113C28.8779 3.57575 28.7943 3.37402 28.6491 3.22815C28.5038 3.08289 28.3024 2.99988 28.0967 2.99988C27.8913 2.99988 27.6899 3.08289 27.5443 3.22815C27.3994 3.37402 27.3154 3.57483 27.3154 3.78113C27.3154 3.98682 27.399 4.18824 27.5443 4.3335C27.6899 4.47876 27.8913 4.56238 28.0967 4.56238Z" fill="white"/>
</g>
<defs>
<clipPath id="clip0_76_3056">
<rect width="40" height="40" fill="white"/>
</clipPath>
</defs>
</svg>
