<svg width="17" height="17" viewBox="0 0 17 17" fill="none" xmlns="http://www.w3.org/2000/svg">
<path d="M8.50004 9.57544C3.39217 9.57544 0.579102 11.9918 0.579102 16.3796C0.579102 16.7223 0.856846 17 1.19954 17H15.8005C16.1432 17 16.4209 16.7223 16.4209 16.3796C16.421 11.9921 13.6079 9.57544 8.50004 9.57544ZM1.84255 15.7592C2.08659 12.4785 4.32325 10.8163 8.50004 10.8163C12.6768 10.8163 14.9135 12.4785 15.1578 15.7592H1.84255Z" fill="#838CC1"/>
<path d="M8.50008 0C6.15378 0 4.38452 1.80486 4.38452 4.1981C4.38452 6.66144 6.23075 8.66525 8.50008 8.66525C10.7694 8.66525 12.6156 6.66144 12.6156 4.1983C12.6156 1.80486 10.8464 0 8.50008 0ZM8.50008 7.42458C6.91487 7.42458 5.62539 5.97729 5.62539 4.1983C5.62539 2.48466 6.83441 1.24087 8.50008 1.24087C10.1391 1.24087 11.3748 2.51215 11.3748 4.1983C11.3748 5.97729 10.0853 7.42458 8.50008 7.42458Z" fill="#838CC1"/>
</svg>
